<?xml version="1.0" standalone="no"?>
<!DOCTYPE svg PUBLIC "-//W3C//DTD SVG 20010904//EN"
 "http://www.w3.org/TR/2001/REC-SVG-20010904/DTD/svg10.dtd">
<svg version="1.0" xmlns="http://www.w3.org/2000/svg"
 width="844.000000pt" height="844.000000pt" viewBox="0 0 844.000000 844.000000"
 preserveAspectRatio="xMidYMid meet">
<metadata>
Created by potrace 1.11, written by Peter Selinger 2001-2013
</metadata>
<g transform="translate(0.000000,844.000000) scale(0.100000,-0.100000)"
fill="#000000" stroke="none">
<path d="M6368 7155 c-2 -2 -46 -6 -98 -10 -155 -12 -173 -13 -225 -19 -138
-15 -290 -37 -345 -50 -14 -3 -45 -9 -70 -12 -25 -3 -52 -10 -61 -15 -9 -4
-18 -6 -21 -4 -2 2 -28 -2 -58 -10 -30 -9 -71 -18 -90 -21 -19 -3 -38 -8 -42
-11 -5 -2 -17 -6 -27 -8 -36 -7 -276 -77 -286 -83 -5 -4 -12 -7 -15 -8 -54
-10 -80 -18 -80 -25 0 -5 -3 -8 -7 -8 -5 1 -10 1 -13 -1 -3 -1 -16 -4 -30 -6
-13 -2 -27 -8 -30 -12 -4 -6 -16 -10 -45 -16 -5 -1 -19 -7 -30 -13 -11 -6 -22
-11 -25 -11 -3 0 -18 -5 -33 -11 -16 -6 -33 -11 -38 -11 -5 0 -9 -4 -9 -8 0
-5 -6 -9 -12 -9 -7 0 -40 -13 -73 -29 -33 -15 -62 -29 -65 -30 -34 -10 -70
-28 -70 -35 0 -5 -3 -8 -7 -7 -15 4 -53 -13 -53 -23 0 -6 -4 -7 -10 -4 -5 3
-10 1 -10 -4 0 -6 -3 -10 -7 -9 -14 4 -123 -53 -123 -63 0 -6 -4 -7 -10 -4 -5
3 -10 1 -10 -6 0 -7 -3 -10 -6 -6 -6 6 -104 -50 -115 -66 -3 -5 -10 -8 -15 -8
-5 1 -17 -6 -26 -14 -10 -8 -18 -11 -18 -7 0 4 -4 2 -8 -3 -4 -6 -31 -26 -59
-44 -29 -18 -53 -37 -53 -42 0 -5 -3 -8 -7 -8 -20 3 -34 -2 -28 -11 3 -5 -3
-10 -14 -10 -11 0 -28 -11 -37 -25 -9 -14 -20 -23 -24 -20 -5 3 -13 -3 -19
-12 -6 -10 -11 -13 -11 -8 0 7 -3 7 -8 0 -4 -5 -29 -28 -57 -49 -27 -22 -56
-46 -62 -55 -7 -8 -13 -12 -13 -8 0 8 -26 -14 -86 -70 -18 -18 -38 -33 -44
-33 -6 0 -9 -3 -7 -7 2 -5 -4 -16 -15 -25 -10 -10 -18 -15 -18 -12 0 3 -53
-48 -119 -113 -65 -65 -117 -121 -114 -125 2 -4 -6 -9 -17 -13 -11 -3 -19 -10
-17 -14 1 -4 -11 -19 -27 -34 -16 -15 -26 -27 -22 -27 3 0 -10 -16 -30 -35
-19 -19 -32 -35 -27 -35 4 0 0 -5 -9 -11 -10 -5 -18 -15 -18 -22 0 -7 -9 -18
-21 -25 -12 -7 -19 -16 -16 -19 3 -3 -9 -19 -26 -35 -18 -17 -25 -27 -17 -24
13 7 13 6 0 -6 -24 -21 -101 -128 -93 -128 4 0 0 -5 -9 -11 -10 -5 -18 -17
-18 -24 0 -8 -5 -15 -11 -15 -5 0 -8 -4 -5 -9 4 -5 2 -11 -3 -13 -14 -5 -100
-145 -94 -152 4 -3 1 -6 -6 -6 -11 0 -36 -47 -33 -62 1 -5 -2 -8 -6 -8 -9 0
-29 -37 -30 -54 0 -5 -5 -12 -10 -15 -15 -9 -122 -228 -115 -235 4 -3 2 -6 -4
-6 -9 0 -17 -15 -27 -50 -1 -3 -8 -14 -16 -25 -15 -20 -24 -24 -73 -30 -16 -2
-34 -8 -41 -14 -7 -6 -16 -8 -19 -4 -4 3 -7 1 -7 -6 0 -7 -4 -10 -9 -6 -5 3
-12 1 -16 -5 -4 -6 -11 -8 -16 -5 -5 4 -9 1 -9 -5 0 -6 -4 -8 -10 -5 -5 3 -10
1 -10 -6 0 -7 -2 -10 -5 -7 -3 3 -43 -14 -87 -38 -45 -24 -85 -44 -90 -44 -4
0 -8 -4 -8 -10 0 -5 -7 -10 -15 -10 -8 0 -15 -4 -15 -10 0 -5 -7 -10 -15 -10
-9 0 -18 -7 -21 -15 -4 -8 -10 -12 -15 -9 -5 3 -12 -2 -15 -10 -3 -9 -13 -16
-21 -16 -8 0 -11 -4 -8 -10 3 -6 1 -10 -5 -10 -6 0 -38 -27 -72 -60 -33 -33
-58 -60 -55 -60 3 0 -9 -15 -26 -34 -48 -52 -57 -64 -57 -76 0 -5 -4 -10 -9
-10 -6 0 -26 -27 -46 -59 -21 -33 -44 -62 -52 -65 -8 -3 -12 -10 -9 -15 3 -5
-1 -12 -10 -15 -8 -3 -13 -10 -10 -15 3 -5 -1 -14 -9 -21 -8 -7 -15 -18 -15
-26 0 -7 -8 -18 -17 -23 -10 -6 -14 -11 -9 -11 6 0 1 -7 -10 -16 -10 -8 -13
-13 -6 -9 7 3 1 -10 -13 -31 -14 -20 -25 -43 -25 -50 0 -8 -4 -14 -10 -14 -5
0 -10 -9 -10 -20 0 -11 -4 -20 -9 -20 -5 0 -12 -13 -16 -30 -4 -16 -11 -30
-16 -30 -5 0 -9 -3 -8 -7 2 -16 -14 -53 -23 -53 -5 0 -6 -4 -3 -10 3 -5 1 -10
-5 -10 -6 0 -9 -4 -5 -9 3 -5 1 -12 -5 -16 -6 -4 -8 -11 -5 -16 4 -5 1 -9 -5
-9 -6 0 -8 -4 -5 -10 3 -5 1 -10 -5 -10 -6 0 -8 -5 -5 -10 3 -5 1 -10 -5 -10
-6 0 -9 -4 -5 -9 3 -5 1 -12 -5 -16 -6 -4 -8 -11 -5 -16 4 -5 1 -9 -6 -9 -7 0
-10 -3 -6 -6 3 -4 0 -19 -9 -35 -8 -16 -11 -29 -7 -29 4 0 -2 -7 -13 -16 -10
-8 -12 -12 -4 -8 8 4 4 -5 -9 -19 -14 -15 -21 -27 -17 -27 4 0 -2 -13 -13 -29
-11 -15 -18 -31 -14 -35 3 -3 2 -6 -3 -6 -5 0 -18 -15 -28 -34 -16 -31 -21
-33 -59 -31 -23 2 -54 8 -69 14 -16 6 -28 8 -28 5 0 -4 -6 -2 -12 3 -7 6 -34
16 -60 24 -27 7 -48 18 -48 23 0 5 -3 6 -7 3 -3 -4 -12 1 -20 11 -9 10 -12 11
-7 2 6 -11 2 -10 -13 3 -11 9 -24 17 -30 17 -6 0 -18 10 -27 23 -9 12 -14 15
-11 7 4 -8 -1 -6 -9 4 -9 11 -16 16 -16 10 0 -5 -5 -1 -11 9 -5 9 -14 17 -19
17 -5 0 -36 25 -67 57 -32 31 -51 53 -43 48 8 -4 2 4 -14 19 -16 14 -25 26
-20 26 5 0 1 5 -9 11 -9 6 -15 14 -12 20 4 5 -1 12 -9 15 -9 3 -13 10 -10 15
3 5 0 9 -7 9 -7 0 -10 3 -6 6 3 4 -1 13 -9 21 -8 8 -12 19 -9 24 4 5 2 9 -4 9
-16 0 -5 269 11 286 4 3 4 12 1 20 -3 8 0 14 5 14 6 0 10 8 10 18 -1 9 8 38
20 65 11 26 22 51 23 55 2 4 11 16 21 26 10 11 18 23 18 26 0 4 12 13 28 21
15 8 36 22 46 31 10 10 23 15 28 12 4 -3 8 0 8 6 0 6 5 8 10 5 6 -3 10 -1 10
4 0 6 3 10 8 9 10 -2 65 13 77 22 14 11 23 11 210 14 94 2 186 -1 205 -7 50
-13 80 -16 81 -6 5 36 4 57 -5 74 -6 11 -9 24 -8 28 1 4 -5 10 -13 13 -8 4
-15 10 -15 15 0 13 -57 68 -64 62 -3 -4 -6 -1 -6 5 0 20 -113 44 -150 32 -9
-3 -44 -9 -85 -15 -22 -3 -51 -8 -65 -11 -23 -5 -69 -14 -95 -18 -5 -1 -16 -5
-22 -9 -7 -5 -13 -6 -13 -3 0 3 -15 -1 -34 -9 -18 -8 -36 -11 -40 -8 -3 4 -6
1 -6 -6 0 -7 -4 -9 -10 -6 -5 3 -10 1 -10 -5 0 -6 -5 -8 -10 -5 -6 3 -10 1
-10 -5 0 -6 -4 -8 -10 -5 -5 3 -10 1 -10 -5 0 -6 -5 -8 -10 -5 -6 3 -10 1 -10
-4 0 -6 -5 -11 -11 -11 -6 0 -26 -16 -45 -35 -19 -20 -34 -32 -34 -28 0 5 -9
-7 -20 -24 -11 -18 -23 -33 -28 -33 -4 0 -16 -14 -26 -30 -9 -17 -27 -40 -39
-52 -12 -11 -15 -18 -7 -14 9 5 9 2 -2 -7 -10 -8 -15 -17 -11 -20 3 -4 1 -7
-6 -7 -7 0 -10 -4 -7 -9 3 -4 -4 -17 -15 -27 -11 -10 -17 -24 -15 -31 3 -7 0
-13 -6 -13 -6 0 -9 -3 -6 -6 4 -3 0 -21 -8 -40 -8 -19 -11 -34 -8 -34 4 0 2
-6 -4 -12 -11 -15 -13 -218 -1 -218 4 0 7 -8 7 -17 0 -10 2 -30 6 -45 3 -16 8
-39 11 -53 3 -13 10 -37 17 -52 6 -16 11 -31 10 -35 -1 -5 2 -8 8 -8 6 0 9 -3
8 -7 -3 -14 25 -63 35 -63 6 0 8 -2 5 -6 -3 -3 21 -31 53 -63 32 -32 55 -61
52 -65 -3 -3 1 -6 10 -6 10 0 17 -4 17 -10 0 -5 5 -10 12 -10 7 0 25 -12 41
-27 17 -16 26 -21 22 -13 -8 13 -7 13 10 0 11 -8 28 -23 39 -32 10 -10 23 -15
28 -12 4 3 8 2 8 -3 0 -4 15 -14 33 -22 17 -8 35 -18 38 -23 3 -5 12 -11 20
-12 17 -4 44 -14 83 -31 16 -7 35 -11 43 -8 7 3 13 1 13 -4 0 -5 10 -9 23 -10
29 -1 85 -9 118 -18 21 -5 25 -12 23 -38 -1 -18 -2 -32 -3 -32 -2 0 -6 -15
-14 -47 -1 -7 -6 -19 -10 -25 -5 -7 -6 -13 -2 -13 3 0 -1 -13 -9 -29 -9 -16
-12 -31 -9 -35 4 -3 1 -6 -5 -6 -6 0 -9 -7 -6 -15 4 -8 1 -15 -5 -15 -6 0 -11
-8 -11 -18 0 -9 -9 -34 -19 -54 -11 -19 -17 -39 -14 -42 4 -3 1 -6 -6 -6 -7 0
-10 -4 -7 -9 3 -5 0 -11 -8 -14 -8 -3 -17 -19 -21 -36 -4 -17 -11 -31 -16 -31
-5 0 -9 -3 -8 -7 2 -15 -13 -53 -21 -53 -9 0 -25 -40 -22 -52 1 -5 -3 -8 -9
-8 -5 0 -7 -5 -4 -10 3 -6 1 -10 -5 -10 -6 0 -8 -4 -5 -10 3 -5 1 -10 -5 -10
-6 0 -8 -5 -5 -10 3 -6 1 -10 -4 -10 -6 0 -11 -7 -11 -15 0 -19 -20 -55 -40
-73 -12 -11 -12 -12 -1 -6 8 4 3 -8 -12 -28 -15 -19 -27 -40 -27 -46 0 -7 -4
-12 -9 -12 -5 0 -13 -10 -16 -22 -4 -13 -17 -31 -29 -41 -11 -10 -15 -16 -8
-12 11 6 11 3 1 -13 -7 -12 -17 -18 -21 -16 -4 3 -8 -3 -8 -13 0 -9 -15 -30
-32 -46 -18 -16 -26 -26 -18 -22 8 4 2 -5 -15 -20 -16 -15 -29 -31 -27 -36 1
-5 -2 -9 -8 -9 -5 0 -10 -6 -10 -14 0 -8 -7 -22 -16 -30 -8 -9 -12 -16 -8 -16
4 0 -1 -7 -12 -16 -10 -8 -12 -12 -4 -8 16 8 -11 -28 -40 -54 -13 -12 -13 -13
0 -6 8 3 0 -7 -18 -24 -18 -17 -35 -31 -38 -31 -3 0 -12 -8 -21 -18 -8 -10
-11 -12 -8 -4 5 9 0 8 -18 -3 -14 -10 -36 -19 -48 -21 -78 -13 -107 -17 -129
-22 -14 -2 -31 -5 -37 -5 -7 -1 -13 -5 -13 -10 0 -5 -4 -7 -9 -3 -6 3 -14 -3
-20 -12 -6 -10 -11 -15 -11 -11 0 4 -13 -5 -29 -20 -15 -15 -26 -30 -24 -35 2
-4 -3 -10 -11 -13 -9 -3 -13 -10 -10 -15 3 -5 0 -9 -5 -9 -6 0 -10 -3 -10 -7
1 -5 0 -10 -1 -13 -15 -39 -14 -88 3 -108 10 -13 9 -14 -3 -7 -8 4 -6 -1 5
-12 11 -12 22 -21 25 -21 3 0 7 -1 10 -2 29 -11 76 -13 120 -6 59 10 114 18
128 19 6 0 12 5 12 10 0 5 6 7 14 4 8 -3 20 1 27 9 6 8 14 12 16 10 3 -2 25 4
49 14 24 11 44 16 44 12 0 -4 5 1 11 11 6 9 14 15 19 12 4 -3 11 2 14 11 3 8
11 12 17 8 7 -4 9 -3 6 3 -4 6 1 17 10 24 14 12 16 12 9 -1 -4 -9 -2 -8 7 2 8
10 17 15 20 11 4 -3 7 -1 7 5 0 6 10 9 23 7 55 -11 83 -18 92 -23 10 -7 26
-11 60 -16 11 -2 21 -5 23 -6 1 -1 7 -4 12 -5 6 -1 11 -3 13 -5 2 -2 17 -5 55
-14 12 -3 27 -8 32 -11 11 -7 47 -16 68 -17 6 -1 12 -4 12 -8 0 -4 6 -7 13 -8
6 0 22 -3 35 -6 12 -3 32 -9 45 -12 12 -3 28 -6 35 -6 6 -1 12 -5 12 -9 0 -4
8 -7 17 -7 10 1 38 -5 63 -12 25 -7 56 -14 69 -16 12 -3 53 -12 90 -20 84 -20
98 -23 141 -30 19 -3 38 -8 41 -10 39 -23 435 -20 473 4 12 7 29 12 66 17 14
1 25 4 25 5 0 1 11 4 25 7 36 7 42 9 75 23 17 7 39 15 50 17 10 2 22 7 25 12
10 15 74 31 137 33 35 1 63 6 63 11 0 5 7 6 16 3 9 -3 21 -3 27 1 7 4 21 8 32
9 11 2 45 6 75 10 119 15 498 5 705 -20 22 -2 67 -7 100 -11 33 -3 71 -8 85
-11 14 -3 45 -7 70 -10 25 -3 56 -7 70 -9 14 -2 43 -7 65 -9 22 -3 51 -8 65
-11 14 -3 40 -8 57 -10 18 -3 54 -10 80 -16 42 -9 107 -19 138 -21 21 -2 220
18 220 22 0 1 9 3 20 4 11 2 36 7 55 11 19 5 37 9 40 10 55 12 77 18 85 23 5
3 16 7 25 8 18 3 40 9 60 17 8 3 41 13 73 22 32 9 70 21 85 27 15 6 29 12 32
13 3 1 20 6 38 10 17 4 32 10 32 14 0 4 8 7 18 8 9 1 35 10 57 19 22 10 42 18
45 19 3 0 11 4 18 8 6 5 12 5 12 1 0 -4 8 0 18 9 9 8 19 16 22 16 18 0 133 52
141 64 3 5 8 8 10 8 15 -2 49 13 49 22 0 6 3 8 6 4 4 -3 26 7 50 24 24 16 44
26 44 22 0 -4 7 0 14 10 8 10 16 17 18 15 5 -4 121 74 139 94 9 10 18 15 21
12 3 -3 15 6 26 20 10 14 22 23 25 20 3 -3 10 4 17 15 6 12 17 21 25 21 7 0
17 9 20 21 4 11 9 18 12 15 7 -7 201 186 205 204 2 8 7 18 12 22 13 9 10 67
-4 94 -16 28 -45 42 -100 48 -25 3 -46 5 -47 5 -2 1 -3 5 -3 11 0 5 18 19 39
29 21 11 47 28 57 38 10 10 20 18 23 18 13 0 81 47 81 56 0 5 6 9 14 9 8 0 22
10 31 23 8 12 16 20 18 17 1 -2 13 5 27 17 14 12 36 31 49 42 13 12 28 21 33
21 5 0 7 3 5 8 -2 4 4 15 15 25 10 9 18 15 18 12 0 -3 8 3 18 13 11 9 17 20
16 23 -2 4 5 9 16 12 11 3 20 13 20 22 0 9 3 14 8 12 4 -2 15 4 25 15 9 10 14
18 11 18 -3 0 10 14 30 32 19 17 33 35 31 39 -3 4 4 10 15 14 11 3 20 11 20
16 0 5 8 17 18 27 44 47 82 98 82 110 0 7 4 11 9 8 4 -3 13 6 19 19 7 14 16
25 22 25 5 0 10 7 10 15 0 8 5 15 11 15 5 0 7 5 4 10 -3 6 -2 10 2 10 5 0 26
23 48 51 64 82 128 161 153 188 50 54 100 155 107 216 3 22 -27 65 -45 66 -23
2 -25 2 -62 12 -16 4 -28 14 -28 23 0 8 4 12 10 9 5 -3 15 3 21 14 7 10 19 17
26 14 7 -3 13 2 13 12 0 9 4 14 9 11 4 -3 16 3 26 14 10 11 23 20 28 20 5 0
20 11 32 24 13 14 26 22 29 19 3 -3 8 2 12 11 3 9 13 16 21 16 8 0 12 3 10 8
-3 4 12 18 34 31 21 14 36 27 35 30 -2 3 2 12 10 19 8 7 14 10 14 6 0 -4 30
24 68 61 37 37 66 72 64 77 -1 5 1 7 5 5 5 -3 14 1 21 9 7 8 10 14 7 14 -3 0
4 10 17 23 36 34 98 114 98 125 0 6 4 12 9 14 14 5 111 171 105 180 -3 4 -1 8
3 8 10 0 50 90 45 102 -1 5 2 8 8 8 6 0 9 3 8 8 0 4 1 14 5 22 13 35 47 147
51 170 3 14 5 25 7 25 1 0 3 29 4 65 2 42 -3 75 -13 97 -9 18 -17 31 -19 29
-3 -2 -15 1 -28 8 -13 7 -54 12 -94 11 -39 -1 -71 0 -71 3 0 3 20 27 45 53 25
26 45 46 45 44 0 -2 24 21 53 52 28 30 52 59 52 63 0 5 4 12 9 17 6 5 6 2 1
-7 -4 -8 1 -6 12 5 11 11 19 23 16 28 -2 4 0 7 6 7 6 0 40 37 76 83 36 45 70
88 75 95 6 6 7 12 3 12 -4 0 3 7 15 16 12 8 22 19 22 24 0 6 7 18 15 27 8 10
15 22 14 26 0 5 9 16 20 26 11 9 21 24 23 32 2 8 11 20 21 27 9 7 17 18 17 24
0 6 7 19 16 29 18 20 62 96 71 122 3 9 9 17 14 17 5 0 9 4 9 10 0 5 13 31 28
57 16 26 29 50 29 53 1 3 15 34 31 70 58 126 70 159 64 165 -4 3 -1 9 6 13 6
5 13 17 15 27 2 11 7 27 10 35 8 19 36 127 43 160 2 14 6 34 9 46 15 68 19
112 19 224 -1 101 -4 133 -19 165 -22 46 -38 65 -56 65 -7 0 -9 3 -6 7 9 8
-40 34 -73 38 -14 2 -25 4 -25 5 0 1 -9 3 -20 5 -11 2 -36 7 -55 11 -19 4 -42
9 -50 10 -8 1 -26 4 -40 7 -14 3 -35 8 -46 11 -12 2 -39 7 -60 11 -22 4 -50 8
-64 11 -39 7 -133 20 -210 29 -25 3 -56 8 -70 11 -26 5 -108 14 -175 19 -22 2
-40 4 -40 5 0 1 -20 3 -45 5 -25 2 -81 7 -125 10 -75 6 -762 15 -767 10z"/>
<path d="M565 3360 c10 -11 20 -20 23 -20 3 0 -3 9 -13 20 -10 11 -20 20 -23
20 -3 0 3 -9 13 -20z"/>
</g>
</svg>
